<svg width="31" height="30" viewBox="0 0 31 30" fill="none" xmlns="http://www.w3.org/2000/svg">
<g clip-path="url(#clip0_10_98)">
<path fill-rule="evenodd" clip-rule="evenodd" d="M15.25 0C6.9625 0 0.25 6.7125 0.25 15C0.25 21.6375 4.54375 27.2437 10.5063 29.2313C11.2563 29.3625 11.5375 28.9125 11.5375 28.5188C11.5375 28.1625 11.5188 26.9813 11.5188 25.725C7.75 26.4188 6.775 24.8062 6.475 23.9625C6.30625 23.5312 5.575 22.2 4.9375 21.8438C4.4125 21.5625 3.6625 20.8687 4.91875 20.85C6.1 20.8313 6.94375 21.9375 7.225 22.3875C8.575 24.6562 10.7312 24.0187 11.5938 23.625C11.725 22.65 12.1188 21.9937 12.55 21.6187C9.2125 21.2437 5.725 19.95 5.725 14.2125C5.725 12.5813 6.30625 11.2313 7.2625 10.1813C7.1125 9.80625 6.5875 8.26875 7.4125 6.20625C7.4125 6.20625 8.66875 5.8125 11.5375 7.74375C12.7375 7.40625 14.0125 7.2375 15.2875 7.2375C16.5625 7.2375 17.8375 7.40625 19.0375 7.74375C21.9062 5.79375 23.1625 6.20625 23.1625 6.20625C23.9875 8.26875 23.4625 9.80625 23.3125 10.1813C24.2688 11.2313 24.85 12.5625 24.85 14.2125C24.85 19.9688 21.3438 21.2437 18.0063 21.6187C18.55 22.0875 19.0188 22.9875 19.0188 24.3937C19.0188 26.4 19 28.0125 19 28.5188C19 28.9125 19.2812 29.3813 20.0312 29.2313C23.009 28.2259 25.5965 26.3121 27.4296 23.7592C29.2627 21.2063 30.2491 18.1429 30.25 15C30.25 6.7125 23.5375 0 15.25 0Z" fill="#F2F2F2"/>
</g>
<defs>
<clipPath id="clip0_10_98">
<rect width="30" height="30" fill="white" transform="translate(0.25)"/>
</clipPath>
</defs>
</svg>
