<svg width="31" height="30" viewBox="0 0 31 30" fill="none" xmlns="http://www.w3.org/2000/svg">
<g clip-path="url(#clip0_10_96)">
<path d="M6.13193 0.00750732C2.90041 0.00750732 0.255611 2.65225 0.255611 5.88382V24.1191C0.255611 27.3506 2.90035 29.9944 6.13193 29.9944H24.3672C27.5987 29.9944 30.2425 27.3506 30.2425 24.1191V5.88382C30.2425 2.65231 27.5987 0.00750732 24.3672 0.00750732H6.13193ZM7.60991 4.95595C9.15935 4.95595 10.1137 5.97313 10.1432 7.3102C10.1432 8.61775 9.15929 9.66352 7.57994 9.66352H7.55087C6.03092 9.66352 5.04851 8.61781 5.04851 7.3102C5.04851 5.97316 6.06065 4.95595 7.60988 4.95595H7.60991ZM20.9623 11.2052C23.9422 11.2052 26.176 13.1529 26.176 17.3383V25.1518H21.6474V17.8622C21.6474 16.0304 20.992 14.7806 19.3532 14.7806C18.102 14.7806 17.3563 15.623 17.0289 16.4367C16.9093 16.7278 16.8799 17.1344 16.8799 17.5417V25.1518H12.3513C12.3513 25.1518 12.4107 12.8034 12.3513 11.5248H16.8808V13.4545C17.4826 12.526 18.5591 11.2052 20.9623 11.2052V11.2052ZM5.31563 11.5258H9.84422V25.1519H5.31563V11.5258Z" fill="#F2F2F2"/>
</g>
<defs>
<clipPath id="clip0_10_96">
<rect width="30" height="30" fill="white" transform="translate(0.25)"/>
</clipPath>
</defs>
</svg>
