<svg width="33" height="33" viewBox="0 0 33 33" fill="none" xmlns="http://www.w3.org/2000/svg">
<path d="M28.9623 5.50001C28.8402 5.48714 28.7171 5.48714 28.595 5.50001H3.51166C3.3509 5.50255 3.1912 5.52721 3.03687 5.57335L15.9817 18.7642L28.9623 5.50001Z" fill="#F2F2F2"/>
<path d="M30.2881 6.77417L17.2448 20.0658C16.9091 20.4073 16.455 20.599 15.9817 20.599C15.5083 20.599 15.0542 20.4073 14.7185 20.0658L1.79167 6.875C1.75193 7.02446 1.73086 7.17846 1.72896 7.33334V25.6667C1.72896 26.1529 1.91772 26.6192 2.25373 26.963C2.58973 27.3069 3.04545 27.5 3.52062 27.5H28.604C29.0791 27.5 29.5349 27.3069 29.8709 26.963C30.2069 26.6192 30.3956 26.1529 30.3956 25.6667V7.33334C30.3885 7.14235 30.3522 6.95369 30.2881 6.77417ZM4.74792 25.6667H3.50271V24.3558L10.0154 17.7467L11.2785 19.0392L4.74792 25.6667ZM28.586 25.6667H27.3319L20.8012 19.0392L22.0644 17.7467L28.5771 24.3558L28.586 25.6667Z" fill="#F2F2F2"/>
</svg>
