<svg width="100" height="100" viewBox="0 0 100 100" fill="none" xmlns="http://www.w3.org/2000/svg">
<path d="M78.1167 39.5583C81.6229 39.5879 84.9811 40.976 87.485 43.4306C89.9889 45.8852 91.4434 49.2151 91.5427 52.7201C91.642 56.225 90.3783 59.6319 88.0174 62.2244C85.6565 64.8168 82.3823 66.3927 78.8834 66.6208L78.05 66.6416L77.5667 66.6708H74.2875C74.7459 67.9625 74.9959 69.3541 74.9959 70.8083C74.9959 77.7416 69.7375 83.3333 62.8042 83.3333C57.3875 83.3333 53.4917 80.7166 51.6042 76.5541C51.1626 75.5858 51.1083 74.4852 51.4524 73.4781C51.7965 72.4711 52.5129 71.6338 53.4547 71.1381C54.3964 70.6425 55.4922 70.526 56.5171 70.8125C57.5421 71.099 58.4185 71.7669 58.9667 72.6791L59.375 73.4666C59.9584 74.475 60.9292 75 62.8042 75C65.0125 75 66.6584 73.25 66.6584 70.8083C66.6584 68.6791 65.0209 66.9083 62.8917 66.6708H12.5C11.4315 66.6792 10.4007 66.2769 9.6204 65.5469C8.84015 64.8169 8.37016 63.815 8.30757 62.7483C8.24499 61.6817 8.59458 60.6317 9.28411 59.8154C9.97363 58.9992 10.9504 58.479 12.0125 58.3625L12.5 58.3416H61.9125L62.4 58.3125C62.6625 58.3125 62.925 58.3208 63.1875 58.3375L77.6125 58.3416L77.8625 58.3208L78.1125 58.3125L78.65 58.2875C79.551 58.1922 80.4116 57.8635 81.1467 57.3339C81.8818 56.8043 82.466 56.0921 82.8417 55.2676C83.2174 54.4432 83.3715 53.535 83.2888 52.6327C83.2062 51.7305 82.8896 50.8654 82.3703 50.123C81.851 49.3805 81.1471 48.7864 80.328 48.3992C79.5088 48.012 78.6029 47.8452 77.6996 47.9153C76.7963 47.9853 75.9269 48.2898 75.1772 48.7986C74.4276 49.3074 73.8236 50.003 73.425 50.8166L73.0209 51.7583C72.5359 52.6979 71.7119 53.418 70.7157 53.7727C69.7196 54.1273 68.6259 54.09 67.6563 53.6682C66.6866 53.2465 65.9136 52.4718 65.4939 51.5013C65.0742 50.5308 65.0391 49.437 65.3959 48.4416C66.3534 45.8385 68.0865 43.5917 70.3613 42.0047C72.6361 40.4176 75.343 39.5666 78.1167 39.5666V39.5583ZM48.9584 50H12.5C11.4315 50.0084 10.4007 49.6061 9.6204 48.876C8.84015 48.146 8.37016 47.1442 8.30757 46.0775C8.24499 45.0108 8.59458 43.9609 9.28411 43.1446C9.97363 42.3284 10.9504 41.8082 12.0125 41.6916L12.5 41.6666H48.9584C50.8126 41.6666 52.6251 41.1168 54.1668 40.0867C55.7085 39.0565 56.9102 37.5924 57.6197 35.8793C58.3293 34.1662 58.515 32.2812 58.1532 30.4627C57.7915 28.6441 56.8986 26.9736 55.5875 25.6625C54.2764 24.3514 52.6059 23.4585 50.7873 23.0968C48.9688 22.735 47.0838 22.9207 45.3707 23.6303C43.6576 24.3398 42.1935 25.5415 41.1633 27.0832C40.1332 28.6249 39.5834 30.4374 39.5834 32.2916C39.5834 33.3967 39.1444 34.4565 38.363 35.2379C37.5816 36.0193 36.5218 36.4583 35.4167 36.4583C34.3116 36.4583 33.2518 36.0193 32.4704 35.2379C31.689 34.4565 31.25 33.3967 31.25 32.2916C31.2496 28.8307 32.2633 25.4455 34.1659 22.5544C36.0685 19.6634 38.7766 17.3932 41.9554 16.0245C45.1342 14.6559 48.6445 14.2487 52.0522 14.8534C55.4599 15.458 58.6157 17.048 61.1296 19.4268C63.6435 21.8055 65.4052 24.8688 66.197 28.238C66.9888 31.6071 66.776 35.1344 65.5849 38.384C64.3937 41.6335 62.2765 44.4627 59.4948 46.522C56.7132 48.5812 53.3891 49.7802 49.9334 49.9708L48.9584 50H12.5H48.9584Z" fill="#F2F2F2"/>
</svg>
