<svg width="100" height="100" viewBox="0 0 100 100" fill="none" xmlns="http://www.w3.org/2000/svg">
<path d="M50 15C62.325 15 69.315 22.87 70.33 32.37H70.64C78.57 32.37 85 38.555 85 46.185C85 53.815 78.57 60 70.64 60L67.125 59.995V60H66.975L62.19 68.705C61.8641 69.2738 61.3278 69.6918 60.6967 69.869C60.0655 70.0462 59.39 69.9684 58.8157 69.6524C58.2414 69.3364 57.8141 68.8074 57.626 68.1794C57.4379 67.5515 57.504 66.8747 57.81 66.295L61.275 59.995H52.185V60H51.98L47.19 68.705C46.8641 69.2738 46.3278 69.6918 45.6967 69.869C45.0655 70.0462 44.39 69.9684 43.8157 69.6524C43.2414 69.3364 42.8141 68.8074 42.626 68.1794C42.4379 67.5515 42.504 66.8747 42.81 66.295L46.275 60H36.98L32.19 68.705C31.8641 69.2738 31.3278 69.6918 30.6967 69.869C30.0655 70.0462 29.39 69.9684 28.8157 69.6524C28.2414 69.3364 27.8141 68.8074 27.626 68.1794C27.4379 67.5515 27.504 66.8747 27.81 66.295L31.275 60H29.36C21.43 60 15 53.815 15 46.185C15 38.835 20.96 32.83 28.485 32.395L29.67 32.37C30.695 22.805 37.675 15 50 15ZM38.74 71.58C39.3154 71.909 39.7366 72.453 39.911 73.0925C40.0853 73.7319 39.9987 74.4144 39.67 74.99L34.67 83.74C34.3328 84.299 33.7903 84.7039 33.1586 84.8682C32.5268 85.0325 31.8558 84.9431 31.289 84.6192C30.7222 84.2954 30.3046 83.7626 30.1254 83.1349C29.9462 82.5072 30.0196 81.8343 30.33 81.26L35.33 72.51C35.659 71.9346 36.203 71.5134 36.8425 71.339C37.4819 71.1647 38.1644 71.2513 38.74 71.58V71.58ZM54.67 74.99C54.9804 74.4157 55.0538 73.7428 54.8746 73.1151C54.6954 72.4874 54.2778 71.9546 53.711 71.6308C53.1442 71.3069 52.4732 71.2175 51.8414 71.3818C51.2097 71.5461 50.6672 71.951 50.33 72.51L45.33 81.26C45.0196 81.8343 44.9462 82.5072 45.1254 83.1349C45.3046 83.7626 45.7222 84.2954 46.289 84.6192C46.8558 84.9431 47.5268 85.0325 48.1586 84.8682C48.7903 84.7039 49.3328 84.299 49.67 83.74L54.67 74.99Z" fill="#F2F2F2"/>
</svg>
