<svg width="100" height="100" viewBox="0 0 100 100" fill="none" xmlns="http://www.w3.org/2000/svg">
<path d="M50 6.25C50.8288 6.25 51.6237 6.57924 52.2097 7.16529C52.7958 7.75134 53.125 8.5462 53.125 9.375V15.625C53.125 16.4538 52.7958 17.2487 52.2097 17.8347C51.6237 18.4208 50.8288 18.75 50 18.75C49.1712 18.75 48.3763 18.4208 47.7903 17.8347C47.2042 17.2487 46.875 16.4538 46.875 15.625V9.375C46.875 8.5462 47.2042 7.75134 47.7903 7.16529C48.3763 6.57924 49.1712 6.25 50 6.25V6.25ZM50 68.75C54.9728 68.75 59.7419 66.7746 63.2583 63.2583C66.7746 59.7419 68.75 54.9728 68.75 50C68.75 45.0272 66.7746 40.2581 63.2583 36.7417C59.7419 33.2254 54.9728 31.25 50 31.25C45.0272 31.25 40.2581 33.2254 36.7417 36.7417C33.2254 40.2581 31.25 45.0272 31.25 50C31.25 54.9728 33.2254 59.7419 36.7417 63.2583C40.2581 66.7746 45.0272 68.75 50 68.75V68.75ZM90.625 53.125C91.4538 53.125 92.2487 52.7958 92.8347 52.2097C93.4208 51.6237 93.75 50.8288 93.75 50C93.75 49.1712 93.4208 48.3763 92.8347 47.7903C92.2487 47.2042 91.4538 46.875 90.625 46.875H84.375C83.5462 46.875 82.7513 47.2042 82.1653 47.7903C81.5792 48.3763 81.25 49.1712 81.25 50C81.25 50.8288 81.5792 51.6237 82.1653 52.2097C82.7513 52.7958 83.5462 53.125 84.375 53.125H90.625ZM50 81.25C50.8288 81.25 51.6237 81.5792 52.2097 82.1653C52.7958 82.7513 53.125 83.5462 53.125 84.375V90.625C53.125 91.4538 52.7958 92.2487 52.2097 92.8347C51.6237 93.4208 50.8288 93.75 50 93.75C49.1712 93.75 48.3763 93.4208 47.7903 92.8347C47.2042 92.2487 46.875 91.4538 46.875 90.625V84.375C46.875 83.5462 47.2042 82.7513 47.7903 82.1653C48.3763 81.5792 49.1712 81.25 50 81.25V81.25ZM15.625 53.125C16.4538 53.125 17.2487 52.7958 17.8347 52.2097C18.4208 51.6237 18.75 50.8288 18.75 50C18.75 49.1712 18.4208 48.3763 17.8347 47.7903C17.2487 47.2042 16.4538 46.875 15.625 46.875H9.375C8.5462 46.875 7.75134 47.2042 7.16529 47.7903C6.57924 48.3763 6.25 49.1712 6.25 50C6.25 50.8288 6.57924 51.6237 7.16529 52.2097C7.75134 52.7958 8.5462 53.125 9.375 53.125H15.625ZM19.6625 19.6625C19.9528 19.3715 20.2976 19.1406 20.6773 18.983C21.0569 18.8255 21.464 18.7444 21.875 18.7444C22.286 18.7444 22.6931 18.8255 23.0727 18.983C23.4524 19.1406 23.7972 19.3715 24.0875 19.6625L30.3375 25.9125C30.6281 26.203 30.8585 26.548 31.0158 26.9276C31.173 27.3072 31.2539 27.7141 31.2539 28.125C31.2539 28.5359 31.173 28.9428 31.0158 29.3224C30.8585 29.702 30.6281 30.047 30.3375 30.3375C30.047 30.6281 29.702 30.8585 29.3224 31.0158C28.9428 31.173 28.5359 31.2539 28.125 31.2539C27.7141 31.2539 27.3072 31.173 26.9276 31.0158C26.548 30.8585 26.203 30.6281 25.9125 30.3375L19.6625 24.0875C19.3715 23.7972 19.1406 23.4524 18.983 23.0727C18.8255 22.6931 18.7444 22.286 18.7444 21.875C18.7444 21.464 18.8255 21.0569 18.983 20.6773C19.1406 20.2976 19.3715 19.9528 19.6625 19.6625V19.6625ZM24.0875 80.3375C23.7974 80.6281 23.4528 80.8586 23.0736 81.016C22.6944 81.1734 22.2878 81.2546 21.8772 81.2549C21.4666 81.2552 21.06 81.1746 20.6805 81.0177C20.301 80.8608 19.9562 80.6308 19.6656 80.3406C19.3751 80.0505 19.1445 79.706 18.9871 79.3267C18.8297 78.9475 18.7486 78.5409 18.7483 78.1303C18.748 77.7197 18.8286 77.3131 18.9854 76.9336C19.1423 76.5542 19.3724 76.2093 19.6625 75.9188L25.9125 69.6688C26.2026 69.3782 26.5472 69.1476 26.9264 68.9902C27.3056 68.8328 27.7122 68.7517 28.1228 68.7514C28.5334 68.7511 28.94 68.8317 29.3195 68.9885C29.699 69.1454 30.0438 69.3755 30.3344 69.6656C30.6249 69.9558 30.8555 70.3003 31.0129 70.6795C31.1703 71.0588 31.2514 71.4653 31.2517 71.8759C31.252 72.2865 31.1714 72.6932 31.0146 73.0726C30.8577 73.4521 30.6276 73.797 30.3375 74.0875L24.0875 80.3375ZM80.3375 19.6625C80.0472 19.3715 79.7024 19.1406 79.3227 18.983C78.9431 18.8255 78.536 18.7444 78.125 18.7444C77.714 18.7444 77.3069 18.8255 76.9273 18.983C76.5476 19.1406 76.2028 19.3715 75.9125 19.6625L69.6625 25.9125C69.0757 26.4993 68.7461 27.2952 68.7461 28.125C68.7461 28.9548 69.0757 29.7507 69.6625 30.3375C70.2493 30.9243 71.0452 31.2539 71.875 31.2539C72.7048 31.2539 73.5007 30.9243 74.0875 30.3375L80.3375 24.0875C80.6285 23.7972 80.8594 23.4524 81.017 23.0727C81.1745 22.6931 81.2556 22.286 81.2556 21.875C81.2556 21.464 81.1745 21.0569 81.017 20.6773C80.8594 20.2976 80.6285 19.9528 80.3375 19.6625V19.6625ZM75.9125 80.3375C76.4985 80.9243 77.2935 81.2543 78.1228 81.2549C78.9521 81.2554 79.7476 80.9266 80.3344 80.3406C80.9212 79.7547 81.2512 78.9596 81.2517 78.1303C81.2523 77.3011 80.9235 76.5055 80.3375 75.9188L74.0875 69.6688C73.5015 69.082 72.7065 68.752 71.8772 68.7514C71.0479 68.7508 70.2524 69.0797 69.6656 69.6656C69.0788 70.2516 68.7488 71.0467 68.7483 71.8759C68.7477 72.7052 69.0765 73.5007 69.6625 74.0875L75.9125 80.3375Z" fill="#F2F2F2"/>
</svg>
